<svg width="29" height="29" viewBox="0 0 29 29" fill="none" xmlns="http://www.w3.org/2000/svg">
<path fill-rule="evenodd" clip-rule="evenodd" d="M18.8561 9.42812C19.1815 9.75356 19.1815 10.2812 18.8561 10.6066L10.6065 18.8562C10.2811 19.1816 9.75345 19.1816 9.42801 18.8562C9.10257 18.5308 9.10257 18.0031 9.42801 17.6777L17.6776 9.42812C18.003 9.10269 18.5307 9.10269 18.8561 9.42812Z" fill="#3E61BC"/>
<path fill-rule="evenodd" clip-rule="evenodd" d="M9.42808 9.42812C9.75352 9.10269 10.2812 9.10269 10.6066 9.42812L18.8562 17.6777C19.1816 18.0031 19.1816 18.5308 18.8562 18.8562C18.5307 19.1816 18.0031 19.1816 17.6777 18.8562L9.42808 10.6066C9.10264 10.2812 9.10264 9.75356 9.42808 9.42812Z" fill="#3E61BC"/>
</svg>
