<svg width="375" height="45" viewBox="0 0 375 45" fill="none" xmlns="http://www.w3.org/2000/svg">
<rect opacity="0.35" x="336.833" y="17.8333" width="21" height="10.3333" rx="2.16667" stroke="black"/>
<path opacity="0.4" d="M359.333 21V25C360.138 24.6612 360.661 23.8731 360.661 23C360.661 22.1268 360.138 21.3387 359.333 21" fill="black"/>
<rect x="338.333" y="19.3333" width="18" height="7.33333" rx="1.33333" fill="black"/>
<path fill-rule="evenodd" clip-rule="evenodd" d="M323.667 19.6152C325.892 19.6153 328.031 20.4694 329.644 22.001C329.765 22.1192 329.959 22.1177 330.079 21.9976L331.239 20.8273C331.3 20.7664 331.334 20.6839 331.333 20.598C331.333 20.5122 331.298 20.4301 331.237 20.3699C327.005 16.3176 320.329 16.3176 316.097 20.3699C316.035 20.43 316.001 20.5121 316 20.598C315.999 20.6838 316.033 20.7663 316.094 20.8273L317.255 21.9976C317.374 22.1179 317.568 22.1194 317.69 22.001C319.302 20.4693 321.442 19.6152 323.667 19.6152ZM323.667 23.4227C324.889 23.4227 326.068 23.8766 326.974 24.6964C327.097 24.8127 327.29 24.8102 327.409 24.6907L328.569 23.5204C328.63 23.459 328.663 23.3757 328.663 23.2892C328.662 23.2027 328.626 23.1201 328.564 23.0599C325.805 20.4955 321.532 20.4955 318.773 23.0599C318.71 23.1201 318.675 23.2027 318.674 23.2893C318.673 23.3758 318.707 23.4591 318.768 23.5204L319.927 24.6907C320.047 24.8102 320.24 24.8127 320.362 24.6964C321.268 23.8772 322.446 23.4233 323.667 23.4227ZM325.989 25.9846C325.991 26.0714 325.957 26.155 325.895 26.2158L323.89 28.2378C323.831 28.2972 323.751 28.3307 323.667 28.3307C323.583 28.3307 323.503 28.2972 323.445 28.2378L321.439 26.2158C321.377 26.155 321.343 26.0713 321.345 25.9845C321.347 25.8977 321.384 25.8156 321.449 25.7574C322.729 24.6751 324.605 24.6751 325.886 25.7574C325.95 25.8156 325.988 25.8978 325.989 25.9846Z" fill="black"/>
<path fill-rule="evenodd" clip-rule="evenodd" d="M310 17.6667H309C308.448 17.6667 308 18.1144 308 18.6667V27.3334C308 27.8856 308.448 28.3334 309 28.3334H310C310.552 28.3334 311 27.8856 311 27.3334V18.6667C311 18.1144 310.552 17.6667 310 17.6667ZM304.333 20H305.333C305.886 20 306.333 20.4477 306.333 21V27.3334C306.333 27.8856 305.886 28.3334 305.333 28.3334H304.333C303.781 28.3334 303.333 27.8856 303.333 27.3334V21C303.333 20.4477 303.781 20 304.333 20ZM300.667 22.3334H299.667C299.114 22.3334 298.667 22.7811 298.667 23.3334V27.3334C298.667 27.8856 299.114 28.3334 299.667 28.3334H300.667C301.219 28.3334 301.667 27.8856 301.667 27.3334V23.3334C301.667 22.7811 301.219 22.3334 300.667 22.3334ZM296 24.3334H295C294.448 24.3334 294 24.7811 294 25.3334V27.3334C294 27.8856 294.448 28.3334 295 28.3334H296C296.552 28.3334 297 27.8856 297 27.3334V25.3334C297 24.7811 296.552 24.3334 296 24.3334Z" fill="black"/>
<path d="M21.0807 28.2563C23.7687 28.2563 25.3654 26.1543 25.3654 22.5874C25.3654 19.0864 23.6662 17.1675 21.1393 17.1675C18.8395 17.1675 17.2135 18.7129 17.2135 20.8735C17.2135 22.9023 18.6784 24.3818 20.6925 24.3818C21.9303 24.3818 22.9337 23.8105 23.4318 22.8071H23.5563C23.5343 25.29 22.6481 26.7109 21.1027 26.7109C20.1945 26.7109 19.4694 26.2129 19.2423 25.4072H17.36C17.6676 27.1284 19.1471 28.2563 21.0807 28.2563ZM21.1466 22.9243C19.9162 22.9243 19.0665 22.0601 19.0665 20.8149C19.0665 19.6211 19.9601 18.7056 21.1539 18.7056C22.3478 18.7056 23.2413 19.6357 23.2413 20.8516C23.2413 22.0527 22.3698 22.9243 21.1466 22.9243ZM28.5165 22.7705C29.2123 22.7705 29.6884 22.2798 29.6884 21.6353C29.6884 20.9834 29.2123 20.5 28.5165 20.5C27.828 20.5 27.3446 20.9834 27.3446 21.6353C27.3446 22.2798 27.828 22.7705 28.5165 22.7705ZM28.5165 28.1465C29.2123 28.1465 29.6884 27.6558 29.6884 27.0039C29.6884 26.3594 29.2123 25.8687 28.5165 25.8687C27.828 25.8687 27.3446 26.3594 27.3446 27.0039C27.3446 27.6558 27.828 28.1465 28.5165 28.1465ZM36.6041 28H38.4132V25.9712H39.8414V24.4111H38.4132V17.4312H35.7472C34.3116 19.6138 32.8102 22.0454 31.4405 24.4258V25.9712H36.6041V28ZM33.191 24.3452C34.2238 22.5508 35.4469 20.5952 36.5309 18.9399H36.6334V24.4551H33.191V24.3452ZM43.93 28H45.8197V17.4312H43.9374L41.1761 19.3721V21.1519L43.8055 19.2915H43.93V28Z" fill="black"/>
<rect y="44" width="375" height="1" fill="#EFF0F5"/>
</svg>
